<svg xmlns="http://www.w3.org/2000/svg" viewBox="0 0 1200 675"><title>Airbus A380-800 engineering schematic</title><rect width="1200" height="675" fill="#102331"/><path d="M75 350h240l190-18 315 3 265 15-265 15-315 3-190-18H75l-38-13zM470 332 250 160h48l315 160M470 368 250 540h48l315-160M340 338l-95-76M340 362l-95 76M790 337l115-90 30 8-78 92M790 363l115 90 30-8-78-92" fill="none" stroke="#8bc9e8" stroke-width="5"/><path d="M430 339h260M430 361h260" stroke="#f2c879" stroke-width="3"/><g fill="#8bc9e8" font-family="monospace" font-size="20"><text x="70" y="80">A380-800 // DOUBLE-DECK SCALE</text><text x="865" y="610">FOUR-ENGINE SUPERJUMBO</text></g></svg>