<svg xmlns="http://www.w3.org/2000/svg" viewBox="0 0 1200 675"><title>Harrier GR.9 engineering schematic</title><rect width="1200" height="675" fill="#182219"/><path d="M90 350h230l190-16 270 3 220 13-220 13-270 3-190-16H90l-45-13zM470 334 300 205h45l245 115M470 366 300 495h45l245-115M350 338l-100-80M350 362l-100 80M720 335l80-80 28 6-48 74M720 365l80 80 28-6-48-74" fill="none" stroke="#f09d9d" stroke-width="5"/><path d="M540 330v-90M540 370v90M785 330v-90M785 370v90" stroke="#f2c879" stroke-width="8"/><g fill="#f09d9d" font-family="monospace" font-size="20"><text x="70" y="80">HARRIER GR.9 // V/STOL ARCHITECTURE</text><text x="840" y="610">FOUR VECTORING NOZZLES</text></g></svg>