<svg xmlns="http://www.w3.org/2000/svg" viewBox="0 0 1200 675"><title>SpaceShipOne engineering schematic</title><rect width="1200" height="675" fill="#17172b"/><path d="M105 350h250l190-15 280 4 250 11-250 11-280 4-190-15H105l-55-11zM500 335 315 205h48l260 126M500 365 315 495h48l260-126M380 338l-100-80M380 362l-100 80M840 338l105-75 32 8-70 79M840 362l105 75 32-8-70-79" fill="none" stroke="#d4b5f1" stroke-width="5"/><path d="M570 320v-90M630 320v-90M570 380v90M630 380v90" stroke="#f2c879" stroke-width="5"/><g fill="#d4b5f1" font-family="monospace" font-size="20"><text x="70" y="80">SPACESHIPONE // FEATHERED RE-ENTRY</text><text x="865" y="610">ROCKETPLANE CONFIGURATION</text></g></svg>